<svg width="252" height="30" viewBox="0 0 252 30" fill="none" xmlns="http://www.w3.org/2000/svg">
<path d="M190.244 3.27337C193.933 3.19864 196.898 5.67292 196.982 9.9168C197.028 12.3136 195.592 14.2945 193.328 15.1283C195.825 15.8303 197.539 17.7137 197.594 20.59C197.68 24.9028 194.651 27.8425 190.56 27.9265C186.469 28.0104 184.096 25.0108 183.015 21.162L187.032 19.0595C187.664 22.2318 188.759 23.3395 190.301 23.3071C191.609 23.2797 192.429 22.3382 192.392 20.4567C192.355 18.5734 191.5 17.7 190.192 17.7274L188.55 17.7615L188.455 12.9692L190.099 12.9352C191.272 12.9111 192.027 12.0396 191.994 10.3276C191.96 8.61548 191.174 7.87922 190 7.90314C188.457 7.93396 187.679 9.28677 187.164 12.1392L183.068 10.2028C184.027 6.10755 186.79 3.34548 190.244 3.27337ZM7.54539 13.0702L13.5147 3.61963H21.7978L14.051 15.3304L21.7978 27.5894H12.9779L7.54539 18.4461V27.5894H0V3.61963H7.54539V13.0702ZM30.4503 17.0769L37.7276 3.61963H46.044V27.5894H38.4986V14.1315L31.2213 27.5894H22.9049V3.61963H30.4503V17.0769ZM86.6221 27.5894H48.7272V3.61963H86.6221V27.5894ZM96.8501 12.009H105.066V3.61963H112.612V27.5894H105.066V19.1995H96.8501V27.5894H89.3047V3.61963H96.8501V12.009ZM158.125 15.5014L160.405 3.61963H167.448V27.5894H162.417V10.4681L159.6 24.781H156.247L153.43 10.4681V27.5894H148.399V3.61963H155.811L158.125 15.5014ZM176.402 15.0565L178.95 3.61963H183.813L178.749 21.5965C177.575 25.8083 176.066 27.5894 172.411 27.5894C171.639 27.5894 170.734 27.4865 169.795 27.2468V22.1101C170.868 22.5895 171.539 22.7953 172.344 22.7953C173.149 22.7953 173.719 22.6237 174.054 21.9732L168.387 3.61963H173.585L176.402 15.0565ZM204.135 10.8101H205.342C209.769 10.8101 212.619 13.7551 212.619 19.0285C212.619 24.3018 209.769 27.5894 205.342 27.5894H199.105V3.61963H204.135V10.8101ZM218.656 27.5894H213.626V3.61963H218.656V27.5894ZM225.933 13.481L229.689 3.61963H235.055L230.125 14.8508L235.122 27.5894H229.689L225.933 17.2138V27.5894H220.903V3.61963H225.933V13.481ZM251.387 27.5894H246.021L245.417 23.2061H241.36L240.756 27.5894H235.491L239.918 3.61963H246.859L251.387 27.5894ZM204.135 22.7953H205.007C206.751 22.7952 207.757 21.5278 207.757 19.1995C207.757 16.8712 206.751 15.6043 205.007 15.6042H204.135V22.7953ZM56.608 20.0557H78.7413V11.1527H56.608V20.0557ZM241.997 18.412H244.78L243.405 8.31086L241.997 18.412Z" fill="white"/>
<path d="M131.915 22.3705C131.915 18.4516 128.979 15.4058 125.094 15.4058C121.211 15.4058 118.273 18.4036 118.273 22.3705C118.273 26.3375 121.209 29.2878 125.094 29.2878C128.979 29.2877 131.915 26.2895 131.915 22.3705Z" fill="url(#paint0_radial_104_1689)"/>
<path d="M142.159 17.6622V11.99L129.475 8.03333V13.7055L142.159 17.6622Z" fill="url(#paint1_radial_104_1689)"/>
<path d="M142.159 9.62892V3.95672L129.475 0V5.67219L142.159 9.62892Z" fill="url(#paint2_radial_104_1689)"/>
<defs>
<radialGradient id="paint0_radial_104_1689" cx="0" cy="0" r="1" gradientTransform="matrix(-23.8863 29.2878 -23.8863 -29.2878 142.159 0)" gradientUnits="userSpaceOnUse">
<stop stop-color="#E7012B"/>
<stop offset="1" stop-color="#B80853"/>
</radialGradient>
<radialGradient id="paint1_radial_104_1689" cx="0" cy="0" r="1" gradientTransform="matrix(-23.8863 29.2878 -23.8863 -29.2878 142.159 0)" gradientUnits="userSpaceOnUse">
<stop stop-color="#E7012B"/>
<stop offset="1" stop-color="#B80853"/>
</radialGradient>
<radialGradient id="paint2_radial_104_1689" cx="0" cy="0" r="1" gradientTransform="matrix(-23.8863 29.2878 -23.8863 -29.2878 142.159 0)" gradientUnits="userSpaceOnUse">
<stop stop-color="#E7012B"/>
<stop offset="1" stop-color="#B80853"/>
</radialGradient>
</defs>
</svg>
