<?xml version="1.0" encoding="UTF-8"?>
<svg xmlns="http://www.w3.org/2000/svg" width="430" height="120" viewBox="0 0 430 120">
  <defs>
    <style>
      .cls-1, .cls-2 {
        fill: #00d074;
      }

      .cls-2 {
        fill-rule: evenodd;
      }
    </style>
  </defs>
  <path class="cls-1" d="M277.671314,67.2279978c5.8450194-2.191,9.1475211-7.1735001,9.1475211-13.979497,0-10.1616526-6.8735202-14.8955512-21.6280233-14.8955512h-32.5680345v63.0220485h32.1855344c8.3255101,0,14.6820047-1.6209984,18.8940075-4.816494,4.1760111-3.1700039,6.2945057-7.8935051,6.2945057-14.0515041,0-8.7169981-3.9324997-13.6219978-12.3255109-15.2845001v.0054979ZM261.6303028,63.4000015h-13.0955084v-11.8655014l13.2195053-.1195002c6.5840034,0,9.1525183,1.5229988,9.1525183,5.4335022,0,4.4074965-3.033508,6.5514994-9.2765152,6.5514994ZM274.2193142,81.5225029c0,3.1649971-1.2299933,6.800499-10.8060198,6.800499h-14.8735027v-13.4715033h15.7625189c7.1365057,0,9.9120064,1.8700027,9.9120064,6.6764975l.0049973-.0054932ZM403.7679751,68.1239986l22.6455187-29.771049h-17.8345314l-17.8030219,24.1770482h-9.5300021v-24.1770482h-15.911998v63.0220485h15.911998v-25.6634998h9.4110216l19.9685136,25.6634998h19.3745264l-26.2320249-33.2509995ZM325.4278884,78.0525017l-15.7985297-39.3732524-.1289941-.3262997h-18.4390281l25.3740222,57.7135539-10.3355145,23.9334965h17.741548l34.5420091-81.6470504h-17.0229917l-15.9325211,39.6995521ZM203.2327326,56.5280008c9.0595159-3.9260006,13.6485257-10.6333494,13.6485257-19.9561501,0-14.4918013-11.715521-22.2193503-33.8910494-22.3592007-17.4725162,0-27.2915297,5.9251511-29.8860322,7.7430999l-.3304962.2330494v20.7173514l1.6119976,1.1601973c4.7080094-6.6709971,14.7080114-14.2120981,27.9430235-14.2120981.212002,0,.4240041,0,.6355102.0051498,13.9225167.3625512,16.0050195,6.8212008,16.0050195,10.6383514,0,7.1216011-5.0435124,10.8817482-14.5890213,10.8817482h-14.0925188v14.1704988h14.222028c16.7540171,0,18.9040211,5.5525017,18.9040211,10.3950024,0,5.9304953-4.9040088,12.3220015-18.6560274,12.4824953-14.2740224.0930023-26.3355273-5.3609943-32.4285404-14.6474981l-1.7105027,1.2275028v17.9204988l.2015021.2175045c2.6200039,2.8744984,7.0900141,5.5474949,12.5890209,7.5204945,6.2114978,2.2325039,13.3225022,3.4030056,20.5940103,3.4030056h.5115133c11.4935054-.0570011,21.0025267-2.7660084,27.4985249-7.826004,6.1705088-4.8064995,9.4315065-11.487999,9.4315065-19.3139982,0-11.0525036-6.1240076-17.9100037-18.2170124-20.401001h.0049973Z"/>
  <path class="cls-2" d="M59.007069,0c-17.3382196,0-26.1185304,2.33588-33.0900383,5.2311498-9.3745614,3.8896501-16.8163702,11.3530999-20.6974244,20.7432002C2.3307277,32.9612994,0,41.7609501,0,59.1429996c0,17.3815012,2.3307277,26.1760044,5.2196062,33.1684971,3.8810542,9.3949986,11.3280129,16.8535042,20.6974244,20.7430077,6.9767079,2.8954983,15.7518187,5.2259922,33.0900383,5.2259922,17.33852,0,26.1185327-2.3359966,33.0955363-5.2259922,9.3745149-3.8895035,16.8160251-11.3530064,20.6975222-20.7430077,2.8885016-6.9924927,5.2140105-15.7869959,5.2140105-33.1684971,0-17.3820496-2.3305062-26.1765504-5.2140105-33.1686497-3.8814971-9.3953001-11.32851-16.8535501-20.6975222-20.7432002-6.9715103-2.8952698-15.752019-5.2311498-33.0955363-5.2311498ZM31.803287,19.4639504c4.7751553-1.983701,11.4986123-4.05545,27.2092799-4.05545,15.715517,0,22.4335262,2.071749,27.2090367,4.05545,5.6020038,2.3255002,10.0565073,6.7901003,12.3820066,12.4096501,1.9795059,4.7857499,4.0465115,11.5240502,4.0465115,27.2693992,0,15.7450008-2.0670056,22.4835014-4.0465115,27.269001-1.0285008,2.4860001-2.4700003,4.7445011-4.2480041,6.6969967-.6199939.6785011-.9974968,1.0875034-1.2920013,1.3360023-.1344968-.4244995-.2429965-1.0719967-.4134946-2.1284962C87.1361021,58.0294991,60.1235702,30.96205,25.9170307,25.4357004c-1.0542524-.1709008-1.700203-.2796507-2.124002-.41435.2480987-.2952003.6563504-.6733012,1.3333503-1.2948012,1.9431017-1.7816997,4.2015053-3.2267499,6.682108-4.2574489l-.0051999-.0051498ZM23.513976,24.9022508h-.0103498v-.0051999h.0051999l.0051498.0051999ZM16.7491689,40.890851c.0930501-.5076027.1499011-.7769012.2067509-.9582019.1912-.0103498.4702502.0103998.9922015.0518012,32.1184362,2.4239492,57.7614664,28.1185484,60.1804688,60.3135538.0409985.522995.0565005.8024979.0514985.9939957-.1809981.0570011-.4495006.1089954-.9559976.2075005-2.9665075.5644989-6.6305094,1.0099983-11.3230168,1.2275028-.5889995.0259972-.9144984.0414944-1.1370004.0259972-.0670005-.2385044-.1134969-.5854988-.2014973-1.2119961-3.4985058-24.8145056-23.0849294-44.4440031-47.8444067-47.9505062-.6253011-.0880003-.966401-.1399994-1.2041022-.2019978-.0154996-.2279997,0-.5490017.0258506-1.1395025.2170506-4.7026968.6614502-8.3748484,1.2247517-11.3477993l-.0155008-.0103474ZM15.8189682,70.4855013c-.0619996-.7355022-.0982-1.1549997-.0878502-1.4400005.2739003.0209999.6666513.0985003,1.359152.2384996,15.9326677,3.3045006,28.4906847,15.8850002,31.7929861,31.857996.1447012.6940079.2222016,1.0930061.2376988,1.3675022-.2842477.010004-.7028492-.0209999-1.4366977-.0879955-8.0154106-.7150078-12.4391175-2.1755028-15.88612-3.6100006-5.6020062-2.3255062-10.0567624-6.7905045-12.3823142-12.4100018-1.4315026-3.454504-2.8888545-7.8929996-3.6020046-15.9264994l.0051498.0105Z"/>
</svg>